 http://s7.postimage.org/5efa3in57/image.jpg



A Secret Affair [2012 Pinoy] CAMRip EP




info


General

Imdb                             : http://www.imdb.com/title/tt2420176/
Complete name                    : A Secret Affair [2012 Pinoy] CAMRip elite-pirates.com.mkv
Format                           : Matroska
Format version                   : Version 1
File size                        : 430 MiB
Duration                         : 1h 45mn
Overall bit rate                 : 569 Kbps
Writing library                  : libmatroska

Video
ID                               : 1
Format                           : AVC
Format/Info                      : Advanced Video Codec
Format profile                   : High@L3.0
Format settings, CABAC           : Yes
Format settings, ReFrames        : 3 frames
Codec ID                         : H264
Duration                         : 1h 45mn
Bit rate                         : 430 Kbps
Width                            : 640 pixels
Height                           : 480 pixels
Display aspect ratio             : 4:3
Frame rate                       : 25.000 fps
Color space                      : YUV
Chroma subsampling               : 4:2:0
Bit depth                        : 8 bits
Scan type                        : Progressive
Bits/(Pixel*Frame)               : 0.056
Stream size                      : 325 MiB (76%)
Writing library                  : x264 core 119 r2106kMod 07efeb4
Encoding settings                : cabac=1 / ref=3 / deblock=1:0:0 / analyse=0x3:0x13

Audio
ID                               : 2
Format                           : MPEG Audio
Format version                   : Version 1
Format profile                   : Layer 3
Codec ID                         : 55
Codec ID/Hint                    : MP3
Duration                         : 1h 45mn
Bit rate mode                    : Constant
Bit rate                         : 128 Kbps
Channel(s)                       : 2 channels
Sampling rate                    : 44.1 KHz
Compression mode                 : Lossy
Stream size                      : 96.6 MiB (22%)





cast


Gee-Ann Abrahan 	... 	Aimee
Say Alonzo 	... 	Paula
Jackie Lou Blanco 	... 	Cate
Shy Carlos 	... 	May
Anne Curtis 	... 	Rafi
Andi Eigenmann 	... 	Sam
Jacklyn Jose 	... 	Ellen
I.C. Mendoza 	... 	Miggy
Derek Ramsay 	... 	Anton
Ashley Rivera 	... 	Marielle
Joel Torre 	... 	Jimmy
Jill Yulo 	... 	Katie 





plot

 
Rafi (Anne Curtis) is happily committed to her lovely partner in life, Mark (Derek Ramsay). She's a bachelorette from a rich family, who belongs to the "Friday Club", the regular get-together of her college friends. Rafi is an attention-getter because of her in and out beauty and impressive credentials. But one day, a major life decision shifts everyone's impression of her. Sam (Andi Eigenmann), a rebellious, carefree and happy-go-lucky woman, who thinks that she can get away with her every dilemma. However, her perspectives turn 180 degrees when she meets the man who unexpectedly changes her life. 




Screenshots
 
http://s7.postimage.org/sywd4sotn/image.jpg 
http://s7.postimage.org/nc007bmaz/image.jpg 
http://s7.postimage.org/8u2szbuzv/image.jpg 
http://s7.postimage.org/3k2fls04r/image.jpg 
http://s7.postimage.org/uvxon44vf/image.jpg